<?xml version="1.0" standalone="no"?>
<!DOCTYPE svg PUBLIC "-//W3C//DTD SVG 20010904//EN"
 "http://www.w3.org/TR/2001/REC-SVG-20010904/DTD/svg10.dtd">
<svg version="1.0" xmlns="http://www.w3.org/2000/svg"
 width="96.000000pt" height="96.000000pt" viewBox="0 0 96.000000 96.000000"
 preserveAspectRatio="xMidYMid meet">

<g transform="translate(0.000000,96.000000) scale(0.100000,-0.100000)"
fill="#000000" stroke="none">
<path d="M385 747 c-97 -33 -172 -98 -214 -187 -23 -50 -26 -67 -26 -175 0
-100 2 -120 15 -120 12 0 16 22 20 115 5 100 9 123 33 172 52 107 144 162 267
163 62 0 85 -5 132 -28 115 -57 159 -137 167 -307 5 -93 9 -115 21 -115 13 0
15 20 15 120 0 108 -3 125 -26 175 -56 118 -164 190 -293 197 -41 1 -88 -3
-111 -10z"/>
<path d="M380 613 c-40 -21 -63 -42 -85 -78 -29 -46 -30 -53 -30 -159 0 -92 3
-111 15 -111 12 0 16 21 20 105 6 118 22 159 79 197 87 58 203 32 255 -57 16
-27 22 -58 26 -140 4 -84 8 -105 20 -105 12 0 16 19 18 101 2 94 1 104 -26
155 -37 70 -99 111 -180 117 -48 3 -66 -1 -112 -25z"/>
<path d="M429 505 c-39 -21 -50 -60 -47 -156 2 -67 6 -84 18 -84 12 0 16 19
20 93 4 78 8 96 24 108 11 8 27 14 36 14 9 0 25 -6 36 -14 16 -12 20 -30 24
-108 4 -74 8 -93 20 -93 12 0 16 17 18 84 3 98 -9 136 -49 156 -35 19 -66 18
-100 0z"/>
</g>
</svg>
